<?xml version="1.0" encoding="UTF-8"?>
<svg version="1.1" xmlns="http://www.w3.org/2000/svg" width="1024" height="1024">
<path d="M0 0 C1.15556396 0.20109375 1.15556396 0.20109375 2.33447266 0.40625 C10.58466597 1.86384109 17.37998672 3.18431032 23.3125 9.4375 C27.11346711 15.20933895 27.68299416 20.18073019 27 27 C24.38792374 35.38613957 18.29925729 39.70301144 11.5 44.6875 C10.06600107 45.75205859 8.63241273 46.81717047 7.19921875 47.8828125 C6.48942871 48.40907227 5.77963867 48.93533203 5.04833984 49.47753906 C-8.21752081 59.3375995 -20.79724293 69.8527166 -33 81 C-33.98355469 81.87914062 -34.96710938 82.75828125 -35.98046875 83.6640625 C-44.83856977 91.63375654 -53.01078178 100.16434455 -61 109 C-61.78673096 109.86963379 -61.78673096 109.86963379 -62.58935547 110.75683594 C-120.83580673 175.69414216 -160.57884031 264.31046037 -170.375 372.375 C-170.40126465 373.54063477 -170.4275293 374.70626953 -170.45458984 375.90722656 C-170.4868509 393.33316249 -162.76706341 405.76950773 -151 418 C-150.3503125 418.68964844 -149.700625 419.37929688 -149.03125 420.08984375 C-145.41494361 423.83212803 -141.61873689 427.17671429 -137.5625 430.4375 C-127.82711234 438.32302898 -119.05042765 446.04779368 -117 459 C-115.95641269 469.02528136 -118.62111601 477.2872767 -124.75 485.25 C-129.13026785 490.58730116 -134.43562706 494.94046006 -139.80273438 499.25097656 C-152.20382662 508.70596775 -152.20382662 508.70596775 -159.59521484 521.75292969 C-159.33383568 527.85029377 -156.87972884 533.22154973 -154.40283203 538.72216797 C-152.89894705 542.23611851 -151.69782426 545.79823301 -150.55859375 549.44140625 C-131.8275124 608.71498941 -99.75106365 662.86915954 -57.9921875 708.7890625 C-56.2275287 710.74748775 -54.51737864 712.73976996 -52.8125 714.75 C-45.58256777 723.04415123 -37.62274436 731.0168697 -29.21875 738.12109375 C-27.38395677 739.67485351 -25.57941703 741.25209233 -23.78125 742.84765625 C-14.52374016 751.02923275 -4.92885107 758.65019626 5 766 C5.6069873 766.44972168 6.21397461 766.89944336 6.83935547 767.36279297 C30.64562526 784.90041041 56.52718676 800.31873536 83.47265625 812.51171875 C84.33246094 812.90278809 85.19226563 813.29385742 86.078125 813.69677734 C87.67349407 814.41325107 89.27596645 815.11422436 90.88671875 815.79541016 C97.39763479 818.70519454 101.58167644 822.73168918 104.4375 829.3125 C105.4212106 835.76126946 105.30065227 842.73177102 101.50341797 848.30419922 C95.58255455 854.98271778 85.64741554 857.95539544 77.5 860.875 C76.32219971 861.30208252 75.14439941 861.72916504 73.9309082 862.16918945 C42.3816543 873.46818543 10.18461001 881.30905101 -23 886 C-24.12631836 886.16516113 -25.25263672 886.33032227 -26.41308594 886.50048828 C-63.9347741 891.77271619 -104.54503732 891.60849701 -142 886 C-142.67710022 885.90054077 -143.35420044 885.80108154 -144.05181885 885.6986084 C-216.55378449 875.01566823 -285.68925448 848.31827875 -345 805 C-345.72010254 804.47809082 -346.44020508 803.95618164 -347.18212891 803.41845703 C-359.64403479 794.36282457 -371.26678231 784.48038513 -382.66015625 774.12109375 C-384.1988307 772.72626866 -385.74810611 771.34303372 -387.30859375 769.97265625 C-397.09171197 761.34616285 -406.73966997 752.16754711 -415.15625 742.18359375 C-416.69569092 740.36039994 -418.26017482 738.56974727 -419.84375 736.78515625 C-428.02763815 727.52709388 -435.66748058 717.94463017 -443 708 C-443.75579346 706.97567871 -443.75579346 706.97567871 -444.52685547 705.93066406 C-469.30700114 672.11096639 -488.84744381 634.41698318 -503 595 C-503.34869141 594.04689941 -503.69738281 593.09379883 -504.05664062 592.11181641 C-528.09717172 525.95438929 -535.60855131 451.64090506 -526 382 C-525.82839355 380.72688965 -525.65678711 379.4537793 -525.47998047 378.14208984 C-513.54276626 291.99999448 -476.83055719 207.96641123 -417.5546875 143.80078125 C-416.20838976 142.32479428 -414.86655239 140.84390908 -413.56835938 139.32543945 C-408.45545499 133.34511189 -402.95534215 127.76921174 -397.39501953 122.2097168 C-395.76172552 120.57424118 -394.1366153 118.93092292 -392.51171875 117.28710938 C-386.77816008 111.52301606 -380.936231 106.13335521 -374.56323242 101.06616211 C-372.09245073 99.07452239 -369.73133135 97.00433055 -367.37890625 94.875 C-291.16897842 26.48710643 -182.99215825 -6.97674738 0 0 Z " fill="#FBD33E" transform="translate(688,71)"/>
<path d="M0 0 C18.68302183 15.01720564 30.06268235 33.84899806 33.625 57.6875 C35.93868164 79.10488566 28.73830071 100.78882025 15.625 117.6875 C2.76915282 132.8572326 -13.7742334 142.82295169 -33.375 146.6875 C-34.30441406 146.87183594 -35.23382812 147.05617188 -36.19140625 147.24609375 C-57.25382271 150.16640425 -78.11063868 145.09468678 -95.375 132.6875 C-96.73238281 131.71876953 -96.73238281 131.71876953 -98.1171875 130.73046875 C-116.11852844 116.98723537 -126.35564444 96.95172 -129.375 74.6875 C-130.88777781 49.76386551 -123.53661943 29.02783011 -107.140625 10.109375 C-79.63815349 -19.19064366 -32.58534966 -23.74436332 0 0 Z " fill="#F9C33C" transform="translate(573.375,783.3125)"/>
<path d="M0 0 C-1.58747701 25.72825837 -15.17390964 50.53373043 -34 68 C-60.76619437 91.42697124 -91.03037985 98.89547527 -125.95703125 96.7578125 C-147.31126702 94.32159003 -168.11250291 84.25502032 -184 70 C-185.13115234 69.19369141 -185.13115234 69.19369141 -186.28515625 68.37109375 C-186.85105469 67.91863281 -187.41695313 67.46617187 -188 67 C-188 66.34 -188 65.68 -188 65 C-188.57363281 64.76796875 -189.14726562 64.5359375 -189.73828125 64.296875 C-198.65909119 59.18166101 -208.14606699 43.50367773 -212 34 C-212 32.68 -212 31.36 -212 30 C-144.84645234 3.79715942 -71.95335292 -8.11558462 0 0 Z " fill="#F9C33C" transform="translate(650,66)"/>
<path d="M0 0 C12.48033545 10.74576046 26.55348879 27.79612451 28.25390625 44.83984375 C28.34850302 53.33463329 27.98076585 59.12459893 22.08203125 65.4375 C15.49621381 71.60697266 9.82036003 72.97620142 0.8828125 72.77734375 C-6.34283275 72.03478732 -10.96353283 68.3740584 -15.5 62.875 C-17.86106039 59.28968608 -19.23815802 55.42163463 -20.78515625 51.43359375 C-25.127086 41.52039269 -33.4781247 34.16629953 -43.39453125 30.09765625 C-53.75238841 26.26141286 -66.32094913 25.45384855 -76.70703125 29.59765625 C-89.05042655 35.67571435 -96.29159427 44.16774192 -102.30859375 56.421875 C-105.76152236 62.36182488 -110.48980135 66.53920973 -117.08203125 68.47265625 C-124.44507289 69.40055415 -131.29610722 69.66598695 -137.40234375 65.02734375 C-143.80798543 59.09840098 -147.05149492 54.21962855 -147.45703125 45.28515625 C-147.05050667 29.40930164 -135.86912058 15.27812222 -125.08203125 4.47265625 C-124.33566406 3.7146875 -123.58929688 2.95671875 -122.8203125 2.17578125 C-88.92237213 -30.32141778 -35.34185546 -28.98121734 0 0 Z " fill="#331B40" transform="translate(429.08203125,374.52734375)"/>
<path d="M0 0 C0.7734375 -0.01224609 1.546875 -0.02449219 2.34375 -0.03710938 C15.19101522 -0.0694431 27.36561422 5.03699837 36.6875 13.875 C47.55942829 25.69464572 51.98471998 38.50090165 51.59375 54.44921875 C50.36647224 67.79586444 44.12387978 79.28572032 34.40234375 88.41015625 C22.47796652 98.25696503 9.40792134 101.41898609 -5.75 100.1875 C-19.12071615 98.27287674 -30.56941382 91.81956163 -38.8125 81.125 C-48.08694733 68.01285033 -50.13408532 54.85931805 -48.75 39.1875 C-46.06100384 26.89853626 -38.50532879 16.48308495 -28.54296875 8.9765625 C-19.27682657 3.04104765 -10.84881025 0.00886341 0 0 Z " fill="#F9C33C" transform="translate(394.75,160.8125)"/>
<path d="M0 0 C6.93333833 5.02560253 8.47050354 12.16727201 10.73999023 19.98730469 C13.72060965 29.95463677 18.32647678 35.83419455 27.5390625 40.85546875 C32.04104755 42.9492491 36.26886516 43.77429238 41.17578125 44.4140625 C50.51816679 45.66253531 55.4753901 47.95864145 61.703125 55.0234375 C65.84621583 61.33790726 65.85460335 68.72696941 65 76 C62.58988203 82.63858388 57.02538328 87.82674112 50.89453125 91.13671875 C37.89703052 95.01316634 23.21008658 92.03632674 11 87 C9.94554687 86.56558594 8.89109375 86.13117188 7.8046875 85.68359375 C-12.81539668 76.2349651 -27.60425743 58.85834621 -35.5 37.8125 C-38.42417046 29.21598036 -40.0643772 18.19313161 -37.12890625 9.38671875 C-33.86327523 3.87262047 -28.95691142 -0.52154429 -23.25 -3.375 C-14.84927761 -4.99052354 -7.29904988 -4.77831538 0 0 Z " fill="#331C40" transform="translate(428,582)"/>
<path d="M0 0 C1.29139893 -0.03939697 1.29139893 -0.03939697 2.60888672 -0.07958984 C8.14827233 -0.09363001 11.30165826 0.67739804 15.6875 4.375 C19.49539246 8.69747253 21.06768019 11.27758942 20.9609375 17.1484375 C20.39606387 21.74812275 18.65695372 25.82181718 14.96875 28.73046875 C10.89649518 31.12033016 7.10983898 32.43718846 2.44140625 32.76953125 C-7.29636482 33.54326887 -16.25652383 34.43988517 -25.3125 38.375 C-26.76462891 38.98988281 -26.76462891 38.98988281 -28.24609375 39.6171875 C-48.31478707 48.85557168 -62.61777283 65.30405056 -70.43920898 85.84960938 C-72.68292281 92.45274057 -73.26965185 99.17098376 -73.64404297 106.10546875 C-74.04279704 112.94573535 -75.13313348 117.86034632 -79.75 123.1875 C-84.11171193 126.91091263 -87.34008259 127.84184802 -93 127.68359375 C-96.81573852 127.17439891 -99.38511933 125.8255423 -102.3125 123.375 C-106.27180026 117.79338717 -106.99263178 113.5144595 -106.875 106.75 C-106.86259277 105.83412109 -106.85018555 104.91824219 -106.83740234 103.97460938 C-105.91403034 75.07849716 -91.88149652 48.64705685 -71.2109375 28.89453125 C-51.12917304 11.43801093 -26.75130142 0.51417087 0 0 Z " fill="#331C40" transform="translate(335.3125,257.625)"/>
</svg>
