<?xml version="1.0" encoding="UTF-8"?>
<svg version="1.1" xmlns="http://www.w3.org/2000/svg" width="212" height="93">
<path d="M0 0 C69.96 0 139.92 0 212 0 C212 30.69 212 61.38 212 93 C142.04 93 72.08 93 0 93 C0 62.31 0 31.62 0 0 Z " fill="#FEFDFE" transform="translate(0,0)"/>
<path d="M0 0 C4.61945349 2.86899027 4.61945349 2.86899027 5.69921875 6.078125 C5.66935122 11.6135732 4.41391807 14.96418316 0.8515625 19.21875 C-1.60784544 21.5847627 -4.24012235 23.25100885 -7.203125 24.921875 C-9.15293142 25.98028793 -9.15293142 25.98028793 -10.875 28 C-14.31022204 31.23315016 -18.57841545 33.38342735 -23 35 C-23.99 34.67 -24.98 34.34 -26 34 C-23.36 31.69 -20.72 29.38 -18 27 C-18.98018441 22.09907797 -20.245354 19.99867967 -23 16 C-23 15.34 -23 14.68 -23 14 C-19.7 14 -16.4 14 -13 14 C-12.34 15.98 -11.68 17.96 -11 20 C-6.53781133 16.7438651 -6.53781133 16.7438651 -4 12 C-3.49985047 9.45741537 -3.49985047 9.45741537 -4 7 C-6.31498253 4.20272944 -7.9560079 4.00540254 -11.5625 3.5625 C-20.41632182 3.92455219 -28.57217323 8.52496362 -36 13 C-34.3603125 13.6496875 -34.3603125 13.6496875 -32.6875 14.3125 C-27.37304614 16.65774482 -27.37304614 16.65774482 -26 19 C-25.24692154 25.34737559 -26.55637243 29.64603888 -30 35 C-32.42522207 37.42522207 -33.1720679 37.29629254 -36.5 37.3125 C-37.2940625 37.32925781 -38.088125 37.34601562 -38.90625 37.36328125 C-39.5971875 37.24339844 -40.288125 37.12351563 -41 37 C-41.66 36.01 -42.32 35.02 -43 34 C-42.030625 33.731875 -41.06125 33.46375 -40.0625 33.1875 C-38.5465625 32.5996875 -38.5465625 32.5996875 -37 32 C-36.08307039 29.24921116 -35.89113917 27.64051087 -35.9375 24.8125 C-35.958125 23.554375 -35.97875 22.29625 -36 21 C-38.88861709 19.55569145 -40.79647701 19.62311494 -44 20 C-47.22396131 22.63778653 -49.44891583 25.14325018 -51 29 C-51.24029959 31.59154919 -51.24029959 31.59154919 -51.125 34.25 C-51.10695313 35.14203125 -51.08890625 36.0340625 -51.0703125 36.953125 C-51.04710938 37.62859375 -51.02390625 38.3040625 -51 39 C-53.84809926 38.69209738 -55.58286148 38.34521809 -57.8125 36.5 C-59.65126745 32.62891062 -59.72992776 29.20052768 -59 25 C-57.24611682 20.66775864 -55.07106939 17.75461707 -51.25 15.0625 C-48.43825251 14.14327486 -46.62816621 13.88681424 -43.75 13.75 C-39.71564754 13.42162247 -37.58613797 12.25019112 -34.375 9.8125 C-24.5537816 2.45418776 -12.42234354 -2.47162908 0 0 Z " fill="#E3333F" transform="translate(179,19)"/>
<path d="M0 0 C3.72890255 -0.1164862 7.45733514 -0.18734576 11.1875 -0.25 C12.77014648 -0.30027344 12.77014648 -0.30027344 14.38476562 -0.3515625 C22.16292682 -0.44970964 22.16292682 -0.44970964 26.19921875 1.71875 C28.84614421 5.07190503 28.70229359 7.25492106 28.48828125 11.39453125 C27.51482546 16.58889133 25.06183305 20.54787278 20.74609375 23.58740234 C17.68489437 25.16209114 15.89394234 25.3501778 12.48046875 25.29296875 C11.45888672 25.28330078 10.43730469 25.27363281 9.38476562 25.26367188 C8.32966797 25.23853516 7.27457031 25.21339844 6.1875 25.1875 C4.57584961 25.16719727 4.57584961 25.16719727 2.93164062 25.14648438 C0.28724545 25.11122577 -2.35611748 25.06194366 -5 25 C-4.54364214 22.52045564 -4.08495239 20.04137803 -3.625 17.5625 C-3.49867187 16.87478516 -3.37234375 16.18707031 -3.2421875 15.47851562 C-2.27715571 10.29146973 -1.17318711 5.1438005 0 0 Z " fill="#E43440" transform="translate(90,33)"/>
<path d="M0 0 C3.93743833 -0.05797565 7.87476719 -0.09358789 11.8125 -0.125 C12.93205078 -0.14175781 14.05160156 -0.15851562 15.20507812 -0.17578125 C16.27822266 -0.18222656 17.35136719 -0.18867187 18.45703125 -0.1953125 C19.9416687 -0.21102295 19.9416687 -0.21102295 21.45629883 -0.22705078 C24 0 24 0 27 2 C27.39507893 6.34586828 27.45331002 8.32003497 25 12 C24.34 12 23.68 12 23 12 C23.33 12.66 23.66 13.32 24 14 C24.07033769 15.87379605 24.0843022 17.75001102 24.0625 19.625 C24.05347656 20.62789062 24.04445313 21.63078125 24.03515625 22.6640625 C24.02355469 23.43492188 24.01195313 24.20578125 24 25 C21.03 25 18.06 25 15 25 C15 22.36 15 19.72 15 17 C11.7 17 8.4 17 5 17 C4.67 19.64 4.34 22.28 4 25 C1.03 25 -1.94 25 -5 25 C-4.54364214 22.52045564 -4.08495239 20.04137803 -3.625 17.5625 C-3.49867187 16.87478516 -3.37234375 16.18707031 -3.2421875 15.47851562 C-2.27715571 10.29146973 -1.17318711 5.1438005 0 0 Z " fill="#E43540" transform="translate(29,33)"/>
<path d="M0 0 C8.58 0 17.16 0 26 0 C25.67 1.98 25.34 3.96 25 6 C19.39 6 13.78 6 8 6 C7.67 7.32 7.34 8.64 7 10 C11.95 10 16.9 10 22 10 C22 11.65 22 13.3 22 15 C14.08 15.495 14.08 15.495 6 16 C5.67 17.32 5.34 18.64 5 20 C10.28 20 15.56 20 21 20 C21 21.65 21 23.3 21 25 C12.75 25 4.5 25 -4 25 C-3.19737488 16.17112371 -1.94658021 8.54802613 0 0 Z " fill="#E3343F" transform="translate(61,33)"/>
<path d="M0 0 C1.62463842 -0.05395478 3.24978541 -0.09277195 4.875 -0.125 C5.77992187 -0.14820313 6.68484375 -0.17140625 7.6171875 -0.1953125 C10 0 10 0 12 2 C12.33932522 5.90224001 12.19885794 8.70171308 10 12 C7.47524538 13.26237731 5.68799534 13.09856404 2.875 13.0625 C1.96492188 13.05347656 1.05484375 13.04445313 0.1171875 13.03515625 C-0.58148438 13.02355469 -1.28015625 13.01195312 -2 13 C-1.48041715 8.62065881 -0.94324258 4.31196609 0 0 Z " fill="#FEFBFB" transform="translate(97,39)"/>
<path d="M0 0 C3.80319369 1.26773123 4.2242337 2.58730994 6.1875 6 C6.71730469 6.9075 7.24710938 7.815 7.79296875 8.75 C9 11 9 11 9 12 C5.59961015 12.35042185 2.3854069 12.5412406 -1 12 C-3.625 9 -3.625 9 -5 6 C-5.4125 6.433125 -5.825 6.86625 -6.25 7.3125 C-9.54172757 10.48666587 -11.72483755 12.42540281 -16.4375 12.375 C-17.613125 12.25125 -18.78875 12.1275 -20 12 C-15.88210103 9.25473402 -11.50512272 7.05901231 -7.12890625 4.75390625 C-4.0516457 3.14203321 -4.0516457 3.14203321 -1.77734375 1.21484375 C-1.19082031 0.81394531 -0.60429687 0.41304687 0 0 Z " fill="#E3333E" transform="translate(171,46)"/>
<path d="M0 0 C3.63 0 7.26 0 11 0 C10 4 10 4 7.49609375 5.703125 C6.48675781 6.21359375 5.47742187 6.7240625 4.4375 7.25 C2.91962891 8.03117187 2.91962891 8.03117187 1.37109375 8.828125 C0.19740234 9.40820312 0.19740234 9.40820312 -1 10 C-0.67 6.7 -0.34 3.4 0 0 Z " fill="#FEF8F9" transform="translate(36,39)"/>
<path d="M0 0 C-0.33 0.99 -0.66 1.98 -1 3 C-2.75 3.7734375 -2.75 3.7734375 -5 4.375 C-9.47976655 5.70817853 -13.1795199 7.67102809 -17.15234375 10.109375 C-17.76207031 10.40328125 -18.37179688 10.6971875 -19 11 C-19.66 10.67 -20.32 10.34 -21 10 C-18.94047642 8.70337462 -16.87762943 7.41264273 -14.8125 6.125 C-14.23435547 5.76019531 -13.65621094 5.39539063 -13.06054688 5.01953125 C-4.98366477 0 -4.98366477 0 0 0 Z " fill="#E95D66" transform="translate(162,21)"/>
<path d="M0 0 C0 3 0 3 -2.5 5.6875 C-6.27871634 8.70685707 -9.30677326 8.40458851 -14 8 C-11.16714998 6.11143332 -8.3051273 4.49453948 -5.3125 2.875 C-4.31863281 2.33617187 -3.32476562 1.79734375 -2.30078125 1.2421875 C-1.54152344 0.83226562 -0.78226563 0.42234375 0 0 Z " fill="#E64751" transform="translate(165,50)"/>
<path d="M0 0 C-0.33 0.99 -0.66 1.98 -1 3 C-5.455 3.495 -5.455 3.495 -10 4 C-7.02096266 1.02096266 -4.19714671 0 0 0 Z " fill="#E74B56" transform="translate(162,21)"/>
</svg>
